<?xml version="1.0" encoding="utf-8"?>
<!-- Generator: Adobe Illustrator 26.0.1, SVG Export Plug-In . SVG Version: 6.00 Build 0)  -->
<svg version="1.1" id="Layer_1" xmlns="http://www.w3.org/2000/svg" xmlns:xlink="http://www.w3.org/1999/xlink" x="0px" y="0px"
	 viewBox="0 0 149 54" style="enable-background:new 0 0 149 54;" xml:space="preserve">
<style type="text/css">
	.st0{fill:#2059E6;}
	.st1{fill:#00A99D;}
</style>
<g>
	<g>
		<g>
			<path class="st0" d="M50.43,53.35c-0.37,0-0.75-0.06-1.12-0.17c-1.39-0.43-2.37-1.6-2.57-3.04L40.91,7.6
				c-0.31-2.25-1.78-4.01-3.95-4.71c-2.16-0.7-4.39-0.12-5.95,1.53L5.07,31.85h35.57c0.54,0,0.98,0.44,0.98,0.98
				c0,0.54-0.44,0.98-0.98,0.98H0.5L29.59,3.07c2.06-2.18,5.12-2.96,7.98-2.05c2.86,0.92,4.89,3.34,5.3,6.31l5.82,42.53
				c0.09,0.69,0.55,1.22,1.21,1.43c0.66,0.21,1.34,0.02,1.81-0.49l15.54-16.99H49.81c-0.54,0-0.98-0.44-0.98-0.98
				c0-0.54,0.44-0.98,0.98-0.98H71.7L53.15,52.14C52.43,52.93,51.45,53.35,50.43,53.35z"/>
		</g>
	</g>
	<g>
		<g>
			<path class="st0" d="M49.68,18.66l3.31-17.47h4.38l2.3,6.67c0.71,2.22,1.18,4.03,1.59,5.96l0.07-0.01
				c0.08-1.79,0.33-3.7,0.8-6.26l1.2-6.36h3.49l-3.31,17.47h-3.87l-2.43-6.96c-0.77-2.38-1.25-3.96-1.71-6.09l-0.09,0.01
				c-0.19,1.7-0.6,4.17-1.12,6.92l-1.15,6.12H49.68z"/>
			<path class="st0" d="M78.29,11.25h-6.2l-0.81,4.22h6.98l-0.6,3.18H66.94l3.31-17.47h10.34l-0.62,3.18h-6.58l-0.72,3.74h6.23
				L78.29,11.25z"/>
			<path class="st0" d="M97.74,8.2c0,3.17-1.11,6.27-3.12,8.24c-1.63,1.58-3.83,2.5-6.45,2.5c-4.53,0-7.09-3.22-7.09-7.28
				c0-3.15,1.17-6.29,3.23-8.27c1.63-1.56,3.87-2.49,6.37-2.49C95.29,0.91,97.74,4.01,97.74,8.2z M87.23,5.33
				c-1.39,1.39-2.18,4.09-2.18,6.2c0,2.45,1.11,4.3,3.66,4.3c1.1,0,2.12-0.48,2.91-1.28c1.37-1.37,2.13-4.23,2.13-6.25
				c0-2.18-0.79-4.28-3.53-4.28C89.07,4.02,88.04,4.52,87.23,5.33z"/>
			<path class="st0" d="M111.71,18.18c-0.93,0.41-2.5,0.75-4.6,0.75c-4.63,0-7.72-2.82-7.72-7.41c0-3.94,1.75-6.98,4.41-8.76
				c1.82-1.25,3.94-1.84,6.41-1.84c1.9,0,3.32,0.43,3.83,0.73l-1.02,3.03c-0.51-0.24-1.67-0.56-3.17-0.56c-1.51,0-2.94,0.47-4,1.35
				c-1.46,1.2-2.41,3.18-2.41,5.61c0,2.79,1.58,4.65,4.64,4.65c1.23,0,2.45-0.21,3.32-0.58L111.71,18.18z"/>
			<path class="st0" d="M130.49,8.2c0,3.17-1.11,6.27-3.12,8.24c-1.63,1.58-3.83,2.5-6.45,2.5c-4.53,0-7.09-3.22-7.09-7.28
				c0-3.15,1.17-6.29,3.23-8.27c1.63-1.56,3.87-2.49,6.37-2.49C128.04,0.91,130.49,4.01,130.49,8.2z M119.98,5.33
				c-1.39,1.39-2.18,4.09-2.18,6.2c0,2.45,1.11,4.3,3.66,4.3c1.1,0,2.12-0.48,2.91-1.28c1.37-1.37,2.13-4.23,2.13-6.25
				c0-2.18-0.79-4.28-3.53-4.28C121.82,4.02,120.8,4.52,119.98,5.33z"/>
			<path class="st0" d="M131.35,18.66l3.31-17.47h4.38l2.3,6.67c0.71,2.22,1.18,4.03,1.59,5.96l0.07-0.01
				c0.08-1.79,0.33-3.7,0.8-6.26l1.2-6.36h3.49l-3.31,17.47h-3.87l-2.43-6.96c-0.77-2.38-1.25-3.96-1.71-6.09l-0.09,0.01
				c-0.19,1.7-0.6,4.17-1.12,6.92l-1.15,6.12H131.35z"/>
		</g>
	</g>
	<path class="st1" d="M51.87,23.09h-2.19l0.09-0.58h4.98l-0.09,0.58h-2.18l-1,6.65h-0.6L51.87,23.09z"/>
	<path class="st1" d="M54.8,29.73l1.08-7.23h4.35l-0.09,0.57h-3.75l-0.4,2.72h3.49l-0.08,0.56h-3.49l-0.43,2.82h3.78l-0.09,0.57
		H54.8z"/>
	<path class="st1" d="M61.27,28.79c-0.63-0.7-0.86-1.61-0.71-2.72s0.63-2,1.44-2.68c0.81-0.67,1.73-1.02,2.77-1.02
		c1.34,0,2.42,0.65,2.93,1.63l-0.46,0.3c-0.43-0.82-1.33-1.37-2.5-1.37c-0.91,0-1.69,0.29-2.37,0.87c-0.67,0.58-1.08,1.33-1.2,2.28
		c-0.13,0.9,0.07,1.65,0.57,2.27c0.51,0.61,1.21,0.91,2.11,0.91c1.13,0,2.12-0.46,2.95-1.38l0.38,0.39
		c-0.83,0.93-2.06,1.55-3.38,1.55C62.74,29.84,61.9,29.49,61.27,28.79z"/>
	<path class="st1" d="M68.21,29.73l1.08-7.23h0.61l-0.51,3.34h4.04l0.5-3.34h0.6l-1.08,7.23h-0.6l0.5-3.31h-4.04l-0.49,3.31H68.21z"
		/>
	<path class="st1" d="M81.45,22.51h0.6l-1.08,7.23h-0.31l-3.75-5.88l-0.89,5.88h-0.6l1.08-7.23h0.25l3.81,5.93L81.45,22.51z"/>
	<path class="st1" d="M83.68,28.76c-0.62-0.73-0.84-1.62-0.69-2.66c0.24-2.02,2.24-3.76,4.24-3.72c1.05,0,1.88,0.37,2.49,1.1
		c0.62,0.73,0.84,1.61,0.69,2.65c-0.16,1.03-0.65,1.91-1.48,2.63c-0.83,0.72-1.75,1.09-2.78,1.09
		C85.13,29.85,84.29,29.49,83.68,28.76z M88.54,28.36c0.7-0.62,1.12-1.37,1.26-2.26c0.14-0.88-0.05-1.62-0.55-2.23
		c-0.5-0.61-1.18-0.91-2.04-0.91c-0.87,0-1.66,0.31-2.37,0.93c-0.7,0.62-1.12,1.37-1.25,2.26c-0.13,0.88,0.06,1.62,0.56,2.23
		c0.51,0.6,1.19,0.9,2.04,0.9C87.05,29.27,87.83,28.97,88.54,28.36z"/>
	<path class="st0" d="M91.35,29.73l1.08-7.23h0.6l-1,6.65h4.04l-0.08,0.58H91.35z"/>
	<path class="st0" d="M97.32,28.76c-0.62-0.73-0.84-1.62-0.69-2.66c0.24-2.02,2.24-3.76,4.24-3.72c1.05,0,1.88,0.37,2.49,1.1
		c0.62,0.73,0.84,1.61,0.69,2.65c-0.16,1.03-0.65,1.91-1.48,2.63c-0.83,0.72-1.75,1.09-2.78,1.09
		C98.77,29.85,97.94,29.49,97.32,28.76z M102.18,28.36c0.7-0.62,1.12-1.37,1.26-2.26c0.14-0.88-0.05-1.62-0.55-2.23
		c-0.5-0.61-1.18-0.91-2.04-0.91c-0.87,0-1.66,0.31-2.37,0.93c-0.7,0.62-1.12,1.37-1.25,2.26c-0.13,0.88,0.06,1.62,0.56,2.23
		c0.51,0.6,1.19,0.9,2.04,0.9C100.69,29.27,101.48,28.97,102.18,28.36z"/>
	<path class="st0" d="M105.7,28.74c-0.61-0.73-0.82-1.64-0.66-2.72c0.17-1.1,0.65-1.99,1.42-2.64c0.78-0.67,1.7-1,2.75-1
		c0.62,0,1.18,0.13,1.7,0.38c0.52,0.24,0.93,0.58,1.21,0.98l-0.45,0.36c-0.51-0.71-1.46-1.14-2.48-1.14c-0.91,0-1.69,0.28-2.35,0.86
		c-0.65,0.57-1.05,1.32-1.19,2.26c-0.15,0.91,0.03,1.66,0.53,2.28c0.5,0.62,1.19,0.92,2.06,0.92c0.21,0,0.42-0.02,0.63-0.05
		c1.33-0.21,2.29-1.39,2.5-2.72l0.02-0.11h-2.88l0.08-0.56h3.46l-0.09,0.67c-0.23,1.64-1.45,3.07-3.09,3.29
		c-0.21,0.03-0.42,0.04-0.64,0.04C107.15,29.84,106.32,29.47,105.7,28.74z"/>
	<path class="st0" d="M114.93,22.76h0.58l-1.05,7.08h-0.58L114.93,22.76z"/>
	<path class="st0" d="M116.4,29.84l1.05-7.08h4.26l-0.09,0.55h-3.68l-0.39,2.66h3.42l-0.08,0.55h-3.42l-0.42,2.76h3.71l-0.09,0.56
		H116.4z"/>
	<path class="st0" d="M121.7,28.36l0.51-0.29c0.26,0.81,0.81,1.22,1.66,1.22c0.49,0,0.9-0.12,1.24-0.38
		c0.33-0.26,0.54-0.58,0.58-0.98c0.07-0.51-0.17-0.92-0.74-1.23c-0.11-0.07-0.33-0.17-0.66-0.33l-0.67-0.34
		c-0.75-0.42-1.06-1-0.96-1.74c0.07-0.52,0.32-0.94,0.73-1.26c0.41-0.34,0.92-0.5,1.52-0.5c0.86,0,1.48,0.35,1.87,1.07l-0.47,0.33
		c-0.32-0.56-0.79-0.85-1.44-0.85c-0.83,0-1.49,0.49-1.61,1.24c-0.07,0.52,0.15,0.92,0.67,1.2c0.1,0.06,0.33,0.18,0.71,0.36
		c0.38,0.18,0.63,0.32,0.76,0.38c0.7,0.4,1.01,0.97,0.9,1.7c-0.08,0.56-0.34,1.02-0.81,1.37c-0.46,0.34-1.01,0.51-1.63,0.51
		C122.82,29.84,122,29.32,121.7,28.36z"/>
	<path class="st0" d="M129.82,29.84l1.05-7.08h0.58l-0.98,6.51h3.95l-0.08,0.56H129.82z"/>
	<path class="st0" d="M136.62,23.33h-2.14l0.09-0.56h4.87l-0.09,0.56h-2.13l-0.98,6.51h-0.58L136.62,23.33z"/>
	<path class="st0" d="M139.49,29.84l1.05-7.08h2.35c1.02,0,1.79,0.32,2.29,0.96c0.5,0.64,0.67,1.51,0.52,2.61
		c-0.15,1.09-0.56,1.95-1.22,2.58c-0.66,0.62-1.5,0.93-2.54,0.93H139.49z M140.16,29.29h1.79c0.87,0,1.58-0.27,2.13-0.8
		c0.55-0.55,0.9-1.27,1.03-2.19c0.13-0.91,0-1.63-0.39-2.16c-0.39-0.54-1.01-0.8-1.84-0.8h-1.83L140.16,29.29z"/>
</g>
</svg>
